<svg id="icons" xmlns="http://www.w3.org/2000/svg" viewBox="0 0 64 64"><title>desk-chair-workspace</title><g id="desk-chair-workspace"><rect x="50.5" y="34" width="12" height="6" fill="#fff"/><rect x="50.5" y="46" width="12" height="6" fill="#fff"/><rect x="50.5" y="40" width="12" height="6" fill="#fff"/><rect x="50.5" y="52" width="12" height="10" fill="#fff"/><rect x="2.5" y="34" width="12" height="6" fill="#fff"/><rect x="52.5" y="36" width="8" height="2" fill="#dfe2e7"/><rect x="52.5" y="42" width="8" height="2" fill="#dfe2e7"/><rect x="52.5" y="48" width="8" height="2" fill="#dfe2e7"/><rect x="4.5" y="36" width="8" height="2" fill="#dfe2e7"/><rect x="2.5" y="46" width="12" height="6" fill="#fff"/><rect x="2.5" y="40" width="12" height="6" fill="#fff"/><rect x="4.5" y="42" width="8" height="2" fill="#dfe2e7"/><rect x="4.5" y="48" width="8" height="2" fill="#dfe2e7"/><rect x="2.5" y="52" width="12" height="10" fill="#fff"/><rect x="4.5" y="54" width="8" height="6" fill="#dfe2e7"/><rect x="54.5" y="52" width="4" height="10" fill="#ff6ea6"/><rect x="58.5" y="52" width="4" height="10" fill="#e74b3c"/><rect x="50.5" y="52" width="4" height="10" fill="#ffc81a"/><path d="M37.5,48.5c0,2.21-2.24,4-5,4s-5-1.79-5-4" fill="#8a93a0"/><path d="M52.5,33.5a4,4,0,0,1,8,0" fill="#babfc7"/><rect x="14.5" y="2" width="36" height="25" fill="#64ddf9"/><rect x="16.5" y="4" width="32" height="21" fill="#3598dc"/><line x1="24.5" y1="34" x2="2.5" y2="34" fill="none" stroke="#37464f" stroke-miterlimit="10" stroke-width="2"/><line x1="63.5" y1="34" x2="40.5" y2="34" fill="none" stroke="#37464f" stroke-miterlimit="10" stroke-width="2"/><polyline points="24.5 27 14.5 27 14.5 2 50.5 2 50.5 27 40.5 27" fill="none" stroke="#37464f" stroke-miterlimit="10" stroke-width="2"/><path d="M26.5,21h12a2,2,0,0,1,2,2V43a0,0,0,0,1,0,0h-16a0,0,0,0,1,0,0V23A2,2,0,0,1,26.5,21Z" fill="#e74b3c"/><path d="M26.5,21h12a2,2,0,0,1,2,2V43a0,0,0,0,1,0,0h-16a0,0,0,0,1,0,0V23A2,2,0,0,1,26.5,21Z" fill="none" stroke="#37464f" stroke-miterlimit="10" stroke-width="2"/><path d="M44.5,46a3,3,0,0,1-3,3h-18a3,3,0,0,1-3-3" fill="#c12d2d"/><path d="M20.5,46h0a3,3,0,0,1,3-3h18a3,3,0,0,1,3,3h0" fill="#e74b3c"/><rect x="20.5" y="43" width="24" height="6" rx="3" ry="3" fill="none" stroke="#37464f" stroke-miterlimit="10" stroke-width="2"/><path d="M43.5,37h3v7a2,2,0,0,1-2,2h-1" fill="none" stroke="#37464f" stroke-miterlimit="10" stroke-width="2"/><path d="M21.5,37h-3v7a2,2,0,0,0,2,2h1" fill="none" stroke="#37464f" stroke-miterlimit="10" stroke-width="2"/><path d="M37.5,48.5c0,2.21-2.24,4-5,4s-5-1.79-5-4" fill="none" stroke="#37464f" stroke-miterlimit="10" stroke-width="2"/><line x1="32.5" y1="53" x2="32.5" y2="63" fill="none" stroke="#37464f" stroke-miterlimit="10" stroke-width="2"/><path d="M41.5,63V62a4,4,0,0,0-4-4h-10a4,4,0,0,0-4,4v1" fill="none" stroke="#37464f" stroke-miterlimit="10" stroke-width="2"/><rect x="2.5" y="34" width="12" height="28" fill="none" stroke="#37464f" stroke-miterlimit="10" stroke-width="2"/><line x1="2.5" y1="40" x2="14.5" y2="40" fill="none" stroke="#37464f" stroke-miterlimit="10" stroke-width="2"/><line x1="2.5" y1="46" x2="14.5" y2="46" fill="none" stroke="#37464f" stroke-miterlimit="10" stroke-width="2"/><line x1="2.5" y1="52" x2="14.5" y2="52" fill="none" stroke="#37464f" stroke-miterlimit="10" stroke-width="2"/><line x1="7.5" y1="37" x2="9.5" y2="37" fill="none" stroke="#37464f" stroke-miterlimit="10" stroke-width="2"/><line x1="7.5" y1="43" x2="9.5" y2="43" fill="none" stroke="#37464f" stroke-miterlimit="10" stroke-width="2"/><line x1="7.5" y1="49" x2="9.5" y2="49" fill="none" stroke="#37464f" stroke-miterlimit="10" stroke-width="2"/><line x1="10.5" y1="57" x2="12.5" y2="57" fill="none" stroke="#37464f" stroke-miterlimit="10" stroke-width="2"/><rect x="50.5" y="34" width="12" height="28" transform="translate(113 96) rotate(-180)" fill="none" stroke="#37464f" stroke-miterlimit="10" stroke-width="2"/><line x1="62.5" y1="40" x2="50.5" y2="40" fill="none" stroke="#37464f" stroke-miterlimit="10" stroke-width="2"/><line x1="62.5" y1="46" x2="50.5" y2="46" fill="none" stroke="#37464f" stroke-miterlimit="10" stroke-width="2"/><line x1="62.5" y1="52" x2="50.5" y2="52" fill="none" stroke="#37464f" stroke-miterlimit="10" stroke-width="2"/><line x1="57.5" y1="37" x2="55.5" y2="37" fill="none" stroke="#37464f" stroke-miterlimit="10" stroke-width="2"/><line x1="57.5" y1="43" x2="55.5" y2="43" fill="none" stroke="#37464f" stroke-miterlimit="10" stroke-width="2"/><line x1="57.5" y1="49" x2="55.5" y2="49" fill="none" stroke="#37464f" stroke-miterlimit="10" stroke-width="2"/><line x1="54.5" y1="52" x2="54.5" y2="62" fill="none" stroke="#37464f" stroke-miterlimit="10" stroke-width="2"/><line x1="58.5" y1="52" x2="58.5" y2="62" fill="none" stroke="#37464f" stroke-miterlimit="10" stroke-width="2"/><polyline points="52.5 13 56.5 13 59.5 21 56.5 30" fill="none" stroke="#37464f" stroke-miterlimit="10" stroke-width="2"/><polygon points="54.5 17 46.5 17 48.5 11 52.5 11 54.5 17" fill="#dfe2e7"/><polygon points="54.5 17 51.5 17 50.5 11 52.5 11 54.5 17" fill="#c8ced6"/><polygon points="54.5 17 46.5 17 48.5 11 52.5 11 54.5 17" fill="none" stroke="#37464f" stroke-miterlimit="10" stroke-width="2"/><path d="M52.5,33.5a4,4,0,0,1,8,0" fill="none" stroke="#37464f" stroke-miterlimit="10" stroke-width="2"/><line x1="21.5" y1="62" x2="25.5" y2="62" fill="none" stroke="#37464f" stroke-miterlimit="10" stroke-width="2"/><line x1="30.5" y1="62" x2="34.5" y2="62" fill="none" stroke="#37464f" stroke-miterlimit="10" stroke-width="2"/><line x1="39.5" y1="62" x2="43.5" y2="62" fill="none" stroke="#37464f" stroke-miterlimit="10" stroke-width="2"/><path d="M2.5,26h8a0,0,0,0,1,0,0v4a2,2,0,0,1-2,2h-4a2,2,0,0,1-2-2V26A0,0,0,0,1,2.5,26Z" fill="#ffc81a"/><rect x="7.5" y="26" width="3" height="6" fill="#e0ab00"/><path d="M5.83,16H7.17A1.83,1.83,0,0,1,9,17.83V26a0,0,0,0,1,0,0H4a0,0,0,0,1,0,0V17.83A1.83,1.83,0,0,1,5.83,16Z" fill="#8dce25"/><path d="M4.5,26V17.63A1.63,1.63,0,0,1,6.13,16h.73A1.63,1.63,0,0,1,8.5,17.63V26" fill="none" stroke="#37464f" stroke-miterlimit="10" stroke-width="2"/><path d="M10.5,26v4a2,2,0,0,1-2,2h-4a2,2,0,0,1-2-2V26" fill="none" stroke="#37464f" stroke-miterlimit="10" stroke-width="2"/><path d="M8.5,21h2a1,1,0,0,0,1-1V17" fill="none" stroke="#37464f" stroke-linecap="round" stroke-miterlimit="10" stroke-width="2"/><path d="M4.5,23h-2a1,1,0,0,1-1-1V21" fill="none" stroke="#37464f" stroke-linecap="round" stroke-miterlimit="10" stroke-width="2"/></g></svg>