<?xml version="1.0" ?><!DOCTYPE svg  PUBLIC '-//W3C//DTD SVG 1.1//EN'  'http://www.w3.org/Graphics/SVG/1.1/DTD/svg11.dtd'><svg enable-background="new 0 0 64 64" height="64px" id="Layer_1" version="1.1" viewBox="0 0 64 64" width="64px" xml:space="preserve" xmlns="http://www.w3.org/2000/svg" xmlns:xlink="http://www.w3.org/1999/xlink"><g><path clip-rule="evenodd" d="M32,7.173C18.311,7.173,7.174,18.311,7.174,32   c0,13.689,11.137,24.827,24.826,24.827c13.689,0,24.826-11.138,24.826-24.827C56.826,18.311,45.689,7.173,32,7.173z M32,43.064   c-11.6,0-17.855-10.826-17.855-10.826S20.4,21.41,32,21.41c11.601,0,17.856,10.828,17.856,10.828S43.601,43.064,32,43.064z" fill-rule="evenodd"/><path clip-rule="evenodd" d="M32,23.005c-5.091,0-9.232,4.142-9.232,9.232c0,5.09,4.142,9.231,9.232,9.231   s9.232-4.142,9.232-9.231C41.232,27.147,37.091,23.005,32,23.005z M32,38.469c-3.437,0-6.232-2.796-6.232-6.231   c0-3.437,2.796-6.232,6.232-6.232s6.232,2.796,6.232,6.232C38.232,35.673,35.437,38.469,32,38.469z" fill-rule="evenodd"/><path clip-rule="evenodd" d="M34.297,32.614c-1.229,0-2.225-0.996-2.225-2.227   c0-1.103,0.809-2.015,1.867-2.188c-0.589-0.284-1.241-0.457-1.939-0.457c-2.48,0-4.494,2.017-4.494,4.495   c0,2.483,2.014,4.494,4.494,4.494c2.481,0,4.494-2.011,4.494-4.494c0-0.358-0.053-0.702-0.132-1.036   C36.037,32.028,35.237,32.614,34.297,32.614z" fill-rule="evenodd"/></g></svg>